<?xml version="1.0" encoding="UTF-8" standalone="no"?>
<svg
   xmlns:dc="http://purl.org/dc/elements/1.1/"
   xmlns:cc="http://creativecommons.org/ns#"
   xmlns:rdf="http://www.w3.org/1999/02/22-rdf-syntax-ns#"
   xmlns:svg="http://www.w3.org/2000/svg"
   xmlns="http://www.w3.org/2000/svg"
   id="svg68"
   version="1.1"
   viewBox="0 0 67.73333 67.73333"
   style="clip-rule:evenodd;fill-rule:evenodd;image-rendering:optimizeQuality;shape-rendering:geometricPrecision;text-rendering:geometricPrecision"
   height="256"
   width="256"
   xml:space="preserve"><metadata
     id="metadata72"><rdf:RDF><cc:Work
         rdf:about=""><dc:format>image/svg+xml</dc:format><dc:type
           rdf:resource="http://purl.org/dc/dcmitype/StillImage" /><dc:title></dc:title></cc:Work></rdf:RDF></metadata><defs
     id="defs4"><style
       id="style2"
       type="text/css"><![CDATA[
        .str1 {stroke:#1F1A17;stroke-width:0.7}
        .str0 {stroke:black;stroke-width:0.7}
        .fil1 {fill:none}
        .fil7 {fill:#0A0B0C}
        .fil4 {fill:#28166F}
        .fil0 {fill:#6D609E}
        .fil2 {fill:#901E78}
        .fil5 {fill:#EF9A48}
        .fil3 {fill:#FFF500}
        .fil6 {fill:white}
      ]]></style></defs><path
     id="_53055080"
     class="fil5 str0"
     d="m 8.0245313,22.730595 3.0404977,8.974781 c 1.586844,8.520024 4.205124,13.71958 7.528653,16.646545 3.371345,5.548848 7.198205,10.566235 11.727385,14.764924 4.751076,5.77989 10.857776,5.419812 16.939437,-1.158001 C 55.117608,53.460526 59.00507,38.738614 60.725372,22.441094 62.720981,3.535407 42.431776,-7.8384735 33.795768,8.6895544 28.657903,18.52285 27.123936,16.887186 19.896695,9.9923066 12.802513,3.2243337 3.3348562,7.2923883 8.0245313,22.730595 Z m 4.9913537,4.746796 c 8.300499,0.347294 14.141216,1.632868 15.119774,4.773828 -6.159044,3.136966 -10.984841,0.757309 -15.119774,-4.773828 z m 19.665736,24.609672 c 1.039693,0.589788 1.771048,0.606833 2.528775,0 1.406103,-1.126175 2.448194,-1.030164 4.696201,-1.841937 3.563275,-1.286772 5.139064,-4.634138 7.708862,-6.951208 -4.969777,6.699127 -9.178764,18.74083 -16.825558,11.185719 -1.917959,-1.89507 -1.96644,-2.474603 -7.496554,-7.056808 -0.226959,-0.188028 -0.463108,-0.382849 -0.708979,-0.584727 2.546889,1.520877 4.804753,3.330721 7.640801,4.562762 0.811269,0.330915 1.304611,0.03289 2.456452,0.686199 z m 3.142788,-20.550939 c -1.411564,-5.73781 3.891858,-8.118931 14.233251,-7.981904 -4.254272,3.829689 -8.724181,7.144962 -14.233251,7.981904 z"
     style="fill:none;stroke:#000000;stroke-width:0.93224764" /><path
     id="_53798880"
     class="fil5 str1"
     d="m 28.237018,32.088092 c -0.978558,-3.140827 -6.819275,-4.426401 -15.119907,-4.773695 4.135066,5.531004 8.960862,7.910794 15.119907,4.773695 z m 21.922001,-8.696999 c -10.341394,-0.137027 -15.644815,2.244094 -14.233251,7.982037 5.50907,-0.836942 9.978979,-4.152215 14.233251,-7.982037 z M 16.681184,21.359662 c 2.604295,2.251685 5.20859,4.041821 7.813151,4.55677 5.297029,1.706108 5.642528,5.377864 5.281046,9.330465 v 9.330598 c -0.321658,3.49691 1.856957,4.015188 3.147316,2.494578 0.69859,-0.823092 2.146516,-1.805716 3.377739,-1.937682 1.893051,-0.202944 3.396918,-0.118384 2.37334,-3.269199 m -5.570471,0.542381 c -0.02411,-4.2433 -0.04821,-8.486599 -0.07246,-12.730032 M 16.608861,18.321904 C 26.540957,27.559021 30.994483,26.108455 34.767134,17.09226 39.719996,5.2557643 49.187652,4.4587724 57.121475,16.368908 m -9.40479,26.761883 c -4.969644,6.699127 -9.178631,18.740963 -16.825425,11.185719 -1.996808,-1.972705 -1.96724,-2.519879 -8.205533,-7.641535 2.546889,1.520877 4.804752,3.330721 7.640667,4.562762 0.811403,0.330915 1.304745,0.03302 2.456586,0.686332 1.039693,0.589788 1.771048,0.606833 2.528641,0 1.406237,-1.126175 2.448195,-1.030163 4.696335,-1.84207 3.563274,-1.286772 5.139064,-4.634005 7.708729,-6.951208 z M 8.1258901,22.567601 C 3.436215,7.1293944 12.903738,3.0612067 19.998054,9.8293128 27.225295,16.724192 28.759262,18.359723 33.897127,8.5265606 42.533002,-8.0016005 62.82234,3.3724131 60.826598,22.2781 59.106429,38.57562 55.218966,53.297532 47.361862,61.795717 41.280202,68.37353 35.173502,68.733741 30.422425,62.953718 25.893246,58.755029 22.066253,53.737775 18.695041,48.188927 15.371378,45.261829 12.753232,40.062406 11.166387,31.542249 Z M 33.392597,50.580835 c 0.101359,-0.479127 -0.07219,-4.22479 1.520382,-0.09575 m 1.528507,14.335335 c -2.606959,-2.356087 2.111619,-3.96392 1.412097,-0.418537 M 53.877061,36.463891 C 54.02184,43.653331 51.512378,52.193595 47.7962,57.453076 M 42.439235,40.372281 c 6.177425,-3.329522 9.07301,-2.412549 8.687021,2.750254 M 15.293195,40.806531 c 1.545155,3.616226 6.104702,4.122253 9.482707,-1.302752 M 10.025468,21.721338 C 9.1815665,8.2921903 13.321427,6.1141452 21.094087,16.947643 25.187064,22.652027 28.867813,23.683789 32.669234,15.356322 39.432968,0.5391967 50.236136,1.582011 57.246542,12.074606 M 33.682023,24.252803 c 6.467116,-11.54886 12.26974,-16.0090847 17.000838,-9.041098"
     style="fill:none;stroke:#1f1a17;stroke-width:1.32291663;stroke-miterlimit:4;stroke-dasharray:none" /></svg>