<?xml version="1.0" encoding="UTF-8" standalone="no"?>
<!-- Creator: CorelDRAW -->

<svg
   xmlns:dc="http://purl.org/dc/elements/1.1/"
   xmlns:cc="http://creativecommons.org/ns#"
   xmlns:rdf="http://www.w3.org/1999/02/22-rdf-syntax-ns#"
   xmlns:svg="http://www.w3.org/2000/svg"
   xmlns="http://www.w3.org/2000/svg"
   xmlns:sodipodi="http://sodipodi.sourceforge.net/DTD/sodipodi-0.dtd"
   xmlns:inkscape="http://www.inkscape.org/namespaces/inkscape"
   xml:space="preserve"
   width="512"
   height="512"
   style="clip-rule:evenodd;fill-rule:evenodd;image-rendering:optimizeQuality;shape-rendering:geometricPrecision;text-rendering:geometricPrecision"
   viewBox="0 0 135.46666 135.46666"
   version="1.1"
   id="svg68"
   sodipodi:docname="i2pd logo 2 icon.svg"
   inkscape:export-filename="C:\devel\project\PurpleI2P\logo\i2pd_svg\i2pd_v1_512.png"
   inkscape:export-xdpi="96"
   inkscape:export-ydpi="96"
   inkscape:version="0.92.2 (5c3e80d, 2017-08-06)"><metadata
     id="metadata72"><rdf:RDF><cc:Work
         rdf:about=""><dc:format>image/svg+xml</dc:format><dc:type
           rdf:resource="http://purl.org/dc/dcmitype/StillImage" /><dc:title></dc:title></cc:Work></rdf:RDF></metadata><sodipodi:namedview
     pagecolor="#ffffff"
     bordercolor="#666666"
     borderopacity="1"
     objecttolerance="10"
     gridtolerance="10"
     guidetolerance="10"
     inkscape:pageopacity="0"
     inkscape:pageshadow="2"
     inkscape:window-width="751"
     inkscape:window-height="480"
     id="namedview70"
     showgrid="false"
     units="px"
     inkscape:zoom="1.1893044"
     inkscape:cx="265.03719"
     inkscape:cy="243.89275"
     inkscape:window-x="2399"
     inkscape:window-y="138"
     inkscape:window-maximized="0"
     inkscape:current-layer="svg68" /><defs
     id="defs4"><style
       type="text/css"
       id="style2"><![CDATA[
    .str1 {stroke:#1F1A17;stroke-width:0.7}
    .str0 {stroke:black;stroke-width:0.7}
    .fil1 {fill:none}
    .fil7 {fill:#0A0B0C}
    .fil4 {fill:#28166F}
    .fil0 {fill:#6D609E}
    .fil2 {fill:#901E78}
    .fil5 {fill:#EF9A48}
    .fil3 {fill:#FFF500}
    .fil6 {fill:white}
   ]]></style></defs><g
     id="Layer_x0020_1"
     transform="matrix(0.96257057,0,0,0.96237785,-28.540945,-26.19237)"><metadata
       id="CorelCorpID_0Corel-Layer" /><g
       id="_53817728"><g
         id="g9"><path
           id="_53847936"
           class="fil0 str0"
           d="m 117.961,98.3452 c 7.8606,-8.5747 13.8411,-28.4162 33.2471,-31.4158 -17.0245,-1.63 -27.0316,9.4292 -43.4872,12.0361 -7.9324,-9.431 -15.9673,-27.294 -19.2548,-44.0843 -5.3526,14.982 -0.1398,36.13 -1.5324,47.9408 -22.9306,-3.7475 -26.6516,2.9732 -54.6644,5.1982 27.0553,9.082 32.9964,-1.9597 52.0572,16.5649 -10.4364,23.7076 -0.8607,23.0732 -13.5247,47.0318 20.9509,-17.417 8.6001,-24.1679 32.7006,-37.4379 10.5764,12.9597 30.3321,6.3824 41.0457,25.056 -0.477,-18.9216 -13.0674,-13.8294 -26.5871,-40.8898 z"
           inkscape:connector-curvature="0"
           style="fill:#6d609e;stroke:#000000;stroke-width:0.69999999" /><path
           id="_53844712"
           class="fil1 str1"
           d="m 88.4665,34.8812 c 3.2875,16.7903 11.3224,34.6533 19.2548,44.0844 16.4556,-2.6069 26.4627,-13.6662 43.4872,-12.0362 -19.406,2.9996 -25.3865,22.8411 -33.2471,31.4159 13.5197,27.0603 26.1101,21.968 26.5871,40.8897 -10.7136,-18.6736 -30.4693,-12.0963 -41.0457,-25.056 -24.1005,13.27 -11.7497,20.0209 -32.7007,37.4379 12.6641,-23.9586 3.0884,-23.3241 13.5248,-47.0318 C 65.2661,86.0605 59.325,97.1022 32.2697,88.0202 60.2825,85.7952 64.0035,79.0745 86.9341,82.822 88.3267,71.0112 83.1139,49.8632 88.4665,34.8812 Z"
           inkscape:connector-curvature="0"
           style="fill:none;stroke:#1f1a17;stroke-width:0.69999999" /></g><path
         id="_53839864"
         class="fil2 str0"
         d="m 84.3268,104.585 c -0.6703,1.5226 -1.258,2.9447 -1.7743,4.2795 -1.4909,3.8537 -2.387,6.9785 -2.9577,9.6864 -2.3093,10.9577 0.7098,15.0885 -8.7927,33.0658 8.1875,-6.8065 11.2892,-11.9841 13.4681,-16.5583 0.801,-1.6819 1.4774,-3.2822 2.2359,-4.8519 1.5187,-3.1428 3.3667,-6.1629 7.2047,-9.4697 0.9172,-0.7903 1.9481,-1.597 3.1154,-2.4256 1.8521,-1.3148 4.0474,-2.6848 6.6765,-4.1324 1.2174,1.4917 2.5564,2.7245 3.9892,3.7668 2.7189,1.9779 5.7757,3.2697 8.9804,4.3421 9.7789,3.2722 20.9358,4.5015 28.0762,16.9471 -0.3718,-14.7477 -8.1022,-14.9075 -17.8958,-27.0726 -1.4873,-1.8476 -3.0223,-3.9719 -4.5862,-6.4664 -1.3507,-2.1542 -2.723,-4.5844 -4.1051,-7.3507 1.7839,-1.946 3.4709,-4.4721 5.24,-7.2501 0.1371,-0.2153 0.2747,-0.4321 0.4129,-0.6503 5.9353,-9.3709 12.9335,-21.2493 27.5942,-23.5155 -11.2616,-1.0783 -19.4525,3.396 -28.4705,7.3033 -2.5763,1.1161 -5.22,2.186 -8.0221,3.067 -2.2173,0.6972 -4.5339,1.276 -6.9945,1.6658 -1.1322,-1.3459 -2.2664,-2.8638 -3.3886,-4.5256 -0.2922,-0.4327 -0.5835,-0.8752 -0.8738,-1.3269 C 97.0519,63.1427 91.1627,48.651 88.4665,34.881 c -3.5012,9.8 -2.4818,22.2382 -1.7475,32.9757 0.2476,3.6213 0.4628,7.0492 0.4612,10.1171 -8e-4,1.7422 -0.0717,3.3684 -0.2461,4.848 -1.3672,-0.2234 -2.6661,-0.4096 -3.9059,-0.5619 -1.6054,-0.197 -3.1118,-0.337 -4.5391,-0.4267 -15.9586,-1.0039 -22.0394,4.2662 -46.2194,6.1868 24.2728,8.1481 31.5511,0.0986 46.5554,11.7338 0.0078,0.006 0.0156,0.012 0.0234,0.018 1.7131,1.3301 3.5269,2.9167 5.4783,4.8132 z"
         inkscape:connector-curvature="0"
         style="fill:#901e78;stroke:#000000;stroke-width:0.69999999" /><g
         id="g14"><path
           id="_53838824"
           class="fil3 str0"
           d="m 73.0719,151.617 c 0,-1.2533 -1.0164,-2.2698 -2.2697,-2.2698 -1.2534,0 -2.2698,1.0165 -2.2698,2.2698 0,1.2534 1.0164,2.2698 2.2698,2.2698 1.2533,0 2.2697,-1.0164 2.2697,-2.2698 z"
           inkscape:connector-curvature="0"
           style="fill:#fff500;stroke:#000000;stroke-width:0.69999999" /><path
           id="_53832984"
           class="fil1 str1"
           d="m 70.8022,149.347 c 1.2533,0 2.2697,1.0165 2.2697,2.2698 0,1.2534 -1.0164,2.2698 -2.2697,2.2698 -1.2534,0 -2.2698,-1.0164 -2.2698,-2.2698 0,-1.2533 1.0164,-2.2698 2.2698,-2.2698 z m -0.9537,1.0614 1.3397,0.9017 m -0.2318,-1.0048 -0.9275,1.1336"
           inkscape:connector-curvature="0"
           style="fill:none;stroke:#1f1a17;stroke-width:0.69999999" /></g><g
         id="g18"><path
           id="_53831808"
           class="fil3 str0"
           d="m 147.112,139.999 c 0,-1.2534 -1.0165,-2.2698 -2.2698,-2.2698 -1.2534,0 -2.2698,1.0164 -2.2698,2.2698 0,1.2533 1.0164,2.2698 2.2698,2.2698 1.2533,0 2.2698,-1.0165 2.2698,-2.2698 z"
           inkscape:connector-curvature="0"
           style="fill:#fff500;stroke:#000000;stroke-width:0.69999999" /><path
           id="_53830080"
           class="fil1 str1"
           d="m 144.842,137.729 c 1.2533,0 2.2698,1.0164 2.2698,2.2698 0,1.2533 -1.0165,2.2698 -2.2698,2.2698 -1.2534,0 -2.2698,-1.0165 -2.2698,-2.2698 0,-1.2534 1.0164,-2.2698 2.2698,-2.2698 z m -0.9536,1.0613 1.3397,0.9018 m -0.2319,-1.0048 -0.9275,1.1336"
           inkscape:connector-curvature="0"
           style="fill:none;stroke:#1f1a17;stroke-width:0.69999999" /></g><g
         id="g22"><path
           id="_53828904"
           class="fil3 str0"
           d="m 34.5395,88.0202 c 0,-1.2533 -1.0164,-2.2697 -2.2698,-2.2697 -1.2533,0 -2.2697,1.0164 -2.2697,2.2697 0,1.2534 1.0164,2.2698 2.2697,2.2698 1.2534,0 2.2698,-1.0164 2.2698,-2.2698 z"
           inkscape:connector-curvature="0"
           style="fill:#fff500;stroke:#000000;stroke-width:0.69999999" /><path
           id="_53827176"
           class="fil1 str1"
           d="m 32.2697,85.7505 c 1.2534,0 2.2698,1.0164 2.2698,2.2697 0,1.2534 -1.0164,2.2698 -2.2698,2.2698 C 31.0164,90.29 30,89.2736 30,88.0202 c 0,-1.2533 1.0164,-2.2697 2.2697,-2.2697 z m -0.9536,1.0613 1.3397,0.9017 m -0.2318,-1.0047 -0.9275,1.1336"
           inkscape:connector-curvature="0"
           style="fill:none;stroke:#1f1a17;stroke-width:0.69999999" /></g><g
         id="g26"><path
           id="_53826000"
           class="fil3 str0"
           d="m 153.478,66.9294 c 0,-1.2534 -1.0164,-2.2698 -2.2697,-2.2698 -1.2534,0 -2.2698,1.0164 -2.2698,2.2698 0,1.2533 1.0164,2.2697 2.2698,2.2697 1.2533,0 2.2697,-1.0164 2.2697,-2.2697 z"
           inkscape:connector-curvature="0"
           style="fill:#fff500;stroke:#000000;stroke-width:0.69999999" /><path
           id="_53824136"
           class="fil1 str1"
           d="m 151.209,64.6596 c 1.2533,0 2.2697,1.0164 2.2697,2.2698 0,1.2533 -1.0164,2.2697 -2.2697,2.2697 -1.2534,0 -2.2698,-1.0164 -2.2698,-2.2697 0,-1.2534 1.0164,-2.2698 2.2698,-2.2698 z m -0.9537,1.0613 1.3397,0.9017 m -0.2318,-1.0047 -0.9275,1.1336"
           inkscape:connector-curvature="0"
           style="fill:none;stroke:#1f1a17;stroke-width:0.69999999" /></g><g
         id="g30"><path
           id="_53822960"
           class="fil3 str0"
           d="m 90.6448,34.5799 c 0,-1.2534 -1.0164,-2.2698 -2.2698,-2.2698 -1.2533,0 -2.2698,1.0164 -2.2698,2.2698 0,1.2533 1.0165,2.2698 2.2698,2.2698 1.2534,0 2.2698,-1.0165 2.2698,-2.2698 z"
           inkscape:connector-curvature="0"
           style="fill:#fff500;stroke:#000000;stroke-width:0.69999999" /><path
           id="_53821200"
           class="fil1 str1"
           d="m 88.375,32.3101 c 1.2534,0 2.2698,1.0164 2.2698,2.2698 0,1.2533 -1.0164,2.2698 -2.2698,2.2698 -1.2533,0 -2.2698,-1.0165 -2.2698,-2.2698 0,-1.2534 1.0165,-2.2698 2.2698,-2.2698 z m -0.9536,1.0613 1.3397,0.9018 m -0.2319,-1.0048 -0.9275,1.1336"
           inkscape:connector-curvature="0"
           style="fill:none;stroke:#1f1a17;stroke-width:0.69999999" /></g><g
         id="g34"><path
           id="_53820024"
           class="fil3 str0"
           d="m 147.112,139.999 c 0,-1.2534 -1.0165,-2.2698 -2.2698,-2.2698 -1.2534,0 -2.2698,1.0164 -2.2698,2.2698 0,1.2533 1.0164,2.2698 2.2698,2.2698 1.2533,0 2.2698,-1.0165 2.2698,-2.2698 z"
           inkscape:connector-curvature="0"
           style="fill:#fff500;stroke:#000000;stroke-width:0.69999999" /><path
           id="_53818600"
           class="fil1 str1"
           d="m 144.842,137.729 c 1.2533,0 2.2698,1.0164 2.2698,2.2698 0,1.2533 -1.0165,2.2698 -2.2698,2.2698 -1.2534,0 -2.2698,-1.0165 -2.2698,-2.2698 0,-1.2534 1.0164,-2.2698 2.2698,-2.2698 z m -0.9536,1.0613 1.3397,0.9018 m -0.2319,-1.0048 -0.9275,1.1336"
           inkscape:connector-curvature="0"
           style="fill:none;stroke:#1f1a17;stroke-width:0.69999999" /></g></g><g
       id="_53055312"><path
         id="_53815792"
         class="fil4 str0"
         d="M 97.029,75.0778 C 77.5325,57.2498 69.8109,61.333 41.7624,46.0293 c 20.105,25.471 32.6273,18.6556 39.2501,48.1429 -24.6783,16.0762 -15.1689,21.4275 -42.1237,36.3572 30.7746,-3.5492 23.2167,-17.6563 54.4102,-15.2992 2.0076,18.9136 24.9031,24.9392 23.4877,49.3771 11.3136,-18.3077 -3.8378,-21.2907 0.1223,-55.4569 12.8151,-3.2735 30.8476,-18.4407 51.1852,-9.2272 C 152.9027,87.7839 136.4993,92.0874 119.2143,84.3348 117.5289,70.4244 120.99,48.424 128.3027,30.3971 113.8902,41.3293 105.6999,64.7015 97.029,75.0778 Z"
         inkscape:connector-curvature="0"
         style="fill:#28166f;stroke:#000000;stroke-width:0.69999999" /><g
         id="g40"><path
           id="_53814736"
           class="fil3 str0"
           d="m 40.7894,130.703 c -0.0879,-1.2502 -1.173,-2.1929 -2.4233,-2.1051 -1.2503,0.0879 -2.193,1.1731 -2.1051,2.4233 0.0878,1.2503 1.173,2.193 2.4233,2.1051 1.2502,-0.0878 2.1929,-1.173 2.1051,-2.4233 z"
           inkscape:connector-curvature="0"
           style="fill:#fff500;stroke:#000000;stroke-width:0.69999999" /><path
           id="_53812976"
           class="fil1 str1"
           d="m 38.3661,128.598 c 1.2503,-0.0878 2.3354,0.8549 2.4233,2.1051 0.0878,1.2503 -0.8549,2.3355 -2.1051,2.4233 -1.2503,0.0879 -2.3355,-0.8548 -2.4233,-2.1051 -0.0879,-1.2502 0.8548,-2.3354 2.1051,-2.4233 z m -0.8769,1.1256 1.3996,0.8056 m -0.3017,-0.986 -0.8458,1.1958"
           inkscape:connector-curvature="0"
           style="fill:none;stroke:#1f1a17;stroke-width:0.69999999" /></g><g
         id="g44"><path
           id="_53812064"
           class="fil3 str0"
           d="m 169.995,100.097 c -0.0878,-1.2503 -1.173,-2.1929 -2.4233,-2.1051 -1.2502,0.0879 -2.1929,1.173 -2.1051,2.4233 0.0879,1.2503 1.1731,2.193 2.4233,2.1051 1.2503,-0.0878 2.193,-1.173 2.1051,-2.4233 z"
           inkscape:connector-curvature="0"
           style="fill:#fff500;stroke:#000000;stroke-width:0.69999999" /><path
           id="_53810336"
           class="fil1 str1"
           d="m 167.571,97.992 c 1.2503,-0.0878 2.3355,0.8548 2.4233,2.1051 0.0879,1.2503 -0.8548,2.3355 -2.1051,2.4233 -1.2502,0.0879 -2.3354,-0.8548 -2.4233,-2.1051 -0.0878,-1.2503 0.8549,-2.3354 2.1051,-2.4233 z m -0.8769,1.1256 1.3997,0.8056 m -0.3018,-0.9861 -0.8457,1.1959"
           inkscape:connector-curvature="0"
           style="fill:none;stroke:#1f1a17;stroke-width:0.69999999" /></g><g
         id="g48"><path
           id="_53809288"
           class="fil3 str0"
           d="m 130.203,30.571 c -0.0878,-1.2502 -1.173,-2.1929 -2.4233,-2.1051 -1.2502,0.0879 -2.1929,1.1731 -2.1051,2.4233 0.0879,1.2503 1.1731,2.193 2.4233,2.1051 1.2503,-0.0878 2.193,-1.173 2.1051,-2.4233 z"
           inkscape:connector-curvature="0"
           style="fill:#fff500;stroke:#000000;stroke-width:0.69999999" /><path
           id="_53807560"
           class="fil1 str1"
           d="m 127.78,28.4659 c 1.2503,-0.0878 2.3355,0.8549 2.4233,2.1051 0.0879,1.2503 -0.8548,2.3355 -2.1051,2.4233 -1.2502,0.0879 -2.3354,-0.8548 -2.4233,-2.1051 -0.0878,-1.2502 0.8549,-2.3354 2.1051,-2.4233 z m -0.8768,1.1256 1.3996,0.8056 m -0.3018,-0.986 -0.8457,1.1958"
           inkscape:connector-curvature="0"
           style="fill:none;stroke:#1f1a17;stroke-width:0.69999999" /></g><g
         id="g52"><path
           id="_53806648"
           class="fil3 str0"
           d="m 44.0266,45.8701 c -0.0879,-1.2502 -1.1731,-2.1929 -2.4233,-2.1051 -1.2503,0.0879 -2.193,1.1731 -2.1051,2.4233 0.0878,1.2503 1.173,2.193 2.4233,2.1051 1.2502,-0.0878 2.1929,-1.173 2.1051,-2.4233 z"
           inkscape:connector-curvature="0"
           style="fill:#fff500;stroke:#000000;stroke-width:0.69999999" /><path
           id="_53804888"
           class="fil1 str1"
           d="m 41.6033,43.765 c 1.2502,-0.0878 2.3354,0.8549 2.4233,2.1051 0.0878,1.2503 -0.8549,2.3355 -2.1051,2.4233 -1.2503,0.0879 -2.3355,-0.8548 -2.4233,-2.1051 -0.0879,-1.2502 0.8548,-2.3354 2.1051,-2.4233 z m -0.8769,1.1256 1.3996,0.8056 m -0.3017,-0.9861 -0.8458,1.1959"
           inkscape:connector-curvature="0"
           style="fill:none;stroke:#1f1a17;stroke-width:0.69999999" /></g><g
         id="g56"><path
           id="_53803464"
           class="fil3 str0"
           d="m 119.835,164.572 c -0.0878,-1.2503 -1.173,-2.1929 -2.4233,-2.1051 -1.2502,0.0879 -2.1929,1.173 -2.1051,2.4233 0.0879,1.2503 1.1731,2.193 2.4233,2.1051 1.2503,-0.0878 2.193,-1.173 2.1051,-2.4233 z"
           inkscape:connector-curvature="0"
           style="fill:#fff500;stroke:#000000;stroke-width:0.69999999" /><path
           id="_53054288"
           class="fil1 str1"
           d="m 117.411,162.466 c 1.2503,-0.0878 2.3355,0.8548 2.4233,2.1051 0.0879,1.2503 -0.8548,2.3355 -2.1051,2.4233 -1.2502,0.0879 -2.3354,-0.8548 -2.4233,-2.1051 -0.0878,-1.2503 0.8549,-2.3354 2.1051,-2.4233 z m -0.8769,1.1256 1.3997,0.8056 m -0.3018,-0.9861 -0.8457,1.1959"
           inkscape:connector-curvature="0"
           style="fill:none;stroke:#1f1a17;stroke-width:0.69999999" /></g></g><g
       id="_53793656"><g
         id="g61"><path
           id="_53055080"
           class="fil5 str0"
           d="m 80.0362,88.8985 2.2828,6.7396 c 1.1914,6.3981 3.1572,10.3027 5.6525,12.5007 2.5312,4.1669 5.4044,7.9347 8.8049,11.0877 3.5671,4.3404 8.152,4.07 12.7181,-0.8696 5.8991,-6.3818 8.8178,-17.4372 10.1094,-29.6758 1.4983,-14.1972 -13.7348,-22.7384 -20.2187,-10.3267 -3.8575,7.3843 -5.0092,6.156 -10.4354,0.9783 -5.3263,-5.0824 -12.4346,-2.0275 -8.9136,9.5658 z m 3.7475,3.5646 c 6.232,0.2608 10.6172,1.2262 11.3519,3.5849 -4.6242,2.3557 -8.2474,0.5687 -11.3519,-3.5849 z m 14.765,18.4806 c 0.7806,0.4429 1.3297,0.4557 1.8986,0 1.0557,-0.8457 1.8381,-0.7736 3.5259,-1.3832 2.6753,-0.9663 3.8584,-3.48 5.7878,-5.22 -3.7313,5.0307 -6.8914,14.0734 -12.6326,8.3999 -1.44,-1.4231 -1.4764,-1.8583 -5.6284,-5.2993 -0.1704,-0.1412 -0.3477,-0.2875 -0.5323,-0.4391 1.9122,1.1421 3.6074,2.5012 5.7367,3.4264 0.6091,0.2485 0.9795,0.0247 1.8443,0.5153 z m 2.3596,-15.4327 c -1.0598,-4.3088 2.922,-6.0969 10.6863,-5.994 -3.1941,2.8759 -6.5501,5.3655 -10.6863,5.994 z"
           inkscape:connector-curvature="0"
           style="fill:#ef9a48;stroke:#000000;stroke-width:0.69999999" /><path
           id="_53798880"
           class="fil5 str1"
           d="m 95.2117,95.9255 c -0.7347,-2.3586 -5.1199,-3.324 -11.352,-3.5848 3.1046,4.1535 6.7278,5.9406 11.352,3.5848 z m 16.459,-6.531 c -7.7643,-0.1029 -11.7461,1.6852 -10.6863,5.9941 4.1362,-0.6285 7.4922,-3.1181 10.6863,-5.9941 z M 86.5356,87.869 c 1.9553,1.6909 3.9106,3.0352 5.8661,3.4219 3.977,1.2812 4.2364,4.0385 3.965,7.0067 0,2.3356 0,4.6712 0,7.0068 -0.2415,2.626 1.3942,3.0152 2.363,1.8733 0.5245,-0.6181 1.6116,-1.356 2.536,-1.4551 1.4213,-0.1524 2.5504,-0.0889 1.7819,-2.455 m -4.1823,0.4073 c -0.0181,-3.1865 -0.0362,-6.373 -0.0544,-9.5596 m 1.032,-2.2812 C 101.0928,89.2678 104.7517,87.7282 110,87 m -16.4577,6.0833 c -3.4182,-1.8725 -7.003,-2.6329 -10.7545,-2.2812 m 3.6935,-5.2143 c 7.457,6.9366 10.8007,5.8473 13.6332,-0.9234 3.7186,-8.8886 10.8269,-9.4871 16.7836,-0.5432 m -7.0611,20.0968 c -3.7312,5.0307 -6.8913,14.0735 -12.6325,8.3999 -1.4992,-1.4814 -1.477,-1.8923 -6.1607,-5.7384 1.9122,1.1421 3.6074,2.5012 5.7366,3.4264 0.6092,0.2485 0.9796,0.0248 1.8444,0.5154 0.7806,0.4429 1.3297,0.4557 1.8985,0 1.0558,-0.8457 1.8381,-0.7736 3.526,-1.3833 2.6753,-0.9663 3.8584,-3.4799 5.7877,-5.22 z m -18.2609,3.1006 c 1.704,1.2808 3.3987,2.5777 5.1772,3.7468 0.5869,0.3921 1.2864,0.7687 2.1427,1.0504 0.8917,0.3092 1.6144,0.4833 2.3868,-0.2096 0.489,-0.4387 0.8271,-0.8007 1.6273,-1.1121 3.298,-0.9453 4.6179,-4.384 6.9269,-6.5761 M 80.1123,88.7761 c -3.521,-11.5933 3.5872,-14.6483 8.9136,-9.5658 5.4262,5.1777 6.5779,6.4059 10.4354,-0.9783 6.4838,-12.4118 21.717,-3.8705 20.2186,10.3267 -1.2915,12.2386 -4.2102,23.294 -10.1093,29.6757 -4.5661,4.9396 -9.151,5.2101 -12.7181,0.8696 -3.4005,-3.153 -6.2738,-6.9207 -8.8049,-11.0876 -2.4954,-2.1981 -4.4611,-6.1026 -5.6525,-12.5008 z m 18.9702,21.0365 c 0.0761,-0.3598 -0.0542,-3.1726 1.1415,-0.0719 m 1.1476,10.7651 c -1.9573,-1.7693 1.5854,-2.9767 1.0602,-0.3143 m 12.0304,-20.98 c 0.1087,5.3989 -1.7754,11.8122 -4.5655,15.7618 m -4.022,-12.8268 c 4.638,-2.5003 6.812,-1.8117 6.5222,2.0653 m -26.9034,-1.7392 c 1.1601,2.7156 4.5834,3.0956 7.1196,-0.9783 M 81.5385,88.1406 c -0.6336,-10.0846 2.4746,-11.7202 8.3103,-3.5848 3.073,4.2837 5.8365,5.0585 8.6906,-1.195 5.0782,-11.1269 13.1892,-10.3438 18.4526,-2.4644 m -17.6922,9.1452 c 4.8555,-8.6726 9.2121,-12.022 12.7642,-6.7894"
           inkscape:connector-curvature="0"
           style="fill:#ef9a48;stroke:#1f1a17;stroke-width:0.69999999" /></g><path
         id="_53796960"
         class="fil6 str0"
         d="m 104.049,109.438 c -1.688,0.6096 -2.4701,0.5377 -3.5262,1.3833 -0.5687,0.4555 -1.1177,0.4428 -1.8985,1e-4 -0.8649,-0.4909 -1.2353,-0.2671 -1.8442,-0.5154 -2.1293,-0.9253 -3.8245,-2.2846 -5.7368,-3.4268 0.1846,0.1516 0.362,0.298 0.5322,0.4394 0.0017,10e-4 0.0032,0.002 0.0047,0.004 0.1692,0.1272 0.3384,0.2546 0.5075,0.3819 1.5323,1.1539 3.0651,2.3094 4.6652,3.3614 0.5869,0.3921 1.2864,0.7686 2.1427,1.0502 0.8917,0.3096 1.6144,0.4835 2.3869,-0.2096 0.4888,-0.4385 0.827,-0.801 1.6271,-1.112 2.9239,-0.838 4.2929,-3.6357 6.1749,-5.7873 0.2408,-0.2753 0.4901,-0.5401 0.7521,-0.7888 -1.9294,1.7399 -3.1124,4.2538 -5.7876,5.2201 z"
         inkscape:connector-curvature="0"
         style="fill:#ffffff;stroke:#000000;stroke-width:0.69999999" /><path
         id="_53795624"
         class="fil7 str0"
         d="m 100.984,95.3886 c 4.0776,-0.6195 7.3968,-3.0478 10.5502,-5.8721 -5.3972,-0.065 -8.9559,0.7891 -10.2499,2.7756 -0.4939,0.8353 -0.6039,1.8625 -0.3003,3.0965 z"
         inkscape:connector-curvature="0"
         style="fill:#0a0b0c;stroke:#000000;stroke-width:0.69999999" /><path
         id="_53793680"
         class="fil7 str0"
         d="m 95.1119,95.976 c -0.7935,-2.2847 -5.0781,-3.2368 -11.1544,-3.5055 3.0605,4.0311 6.626,5.7607 11.1544,3.5055 z"
         inkscape:connector-curvature="0"
         style="fill:#0a0b0c;stroke:#000000;stroke-width:0.69999999" /></g></g></svg>