<?xml version="1.0" encoding="UTF-8" standalone="no"?>
<svg
   xmlns:dc="http://purl.org/dc/elements/1.1/"
   xmlns:cc="http://creativecommons.org/ns#"
   xmlns:rdf="http://www.w3.org/1999/02/22-rdf-syntax-ns#"
   xmlns:svg="http://www.w3.org/2000/svg"
   xmlns="http://www.w3.org/2000/svg"
   id="svg2"
   height="546.13336"
   width="546.13336"
   version="1.1"
   viewBox="0 0 512 512">
  <title
     id="title1246">itoopie</title>
  <defs
     id="defs661" />
  <metadata
     id="metadata4321">
    <rdf:RDF>
      <cc:Work
         rdf:about="">
        <dc:format>image/svg+xml</dc:format>
        <dc:type
           rdf:resource="http://purl.org/dc/dcmitype/StillImage" />
        <dc:title>itoopie</dc:title>
      </cc:Work>
    </rdf:RDF>
  </metadata>
  <g
     style="display:inline"
     id="layer1">
    <path
       style="display:inline;fill:#010101"
       d="m 153,239 c -19.29628,10.1068 -35.89784,24.78369 -54.333641,36.46885 -9.746032,8.32066 -25.277462,12.6214 -28.707379,25.98943 10.307056,22.92658 37.56405,33.92848 53.60479,53.08074 23.28522,14.7741 12.39789,37.31214 10.86684,58.46127 -0.65103,19.79563 8.02486,38.22515 19.44408,53.8183 0.0876,13.91995 -31.90349,35.02457 -3.14719,41.12766 31.75568,-0.39587 63.54008,1.13262 95.2725,-0.006 19.25207,-6.5808 41.00426,2.46436 61.81371,-2.43182 23.28106,-1.22258 46.77912,-0.32628 69.92832,-2.57693 22.92231,-15.46076 -28.07351,-30.89777 -1.26144,-46.86781 C 390.50498,438.79689 387.18786,414.04679 382,394 c 17.87423,-14.93999 18.5116,-36.42509 19.87065,-57.42594 5.25206,-19.86251 14.03525,-38.69618 19.17732,-58.49812 -3.84842,-24.03985 -39.1751,-41.31194 -45.80958,-57.14885 17.78713,-29.29972 26.64951,-64.27647 19.59993,-98.29411 C 387.51638,67.544167 342.67824,21.758539 288.8189,10.337029 228.41755,-5.1087959 160.44586,26.883691 133.17057,82.782337 117.33803,113.72488 115.2685,151.24585 123.55952,184.65614 129.00838,205.07414 140.38108,222.47691 153,239 Z"
       id="path6" />
    <path
       id="path14"
       d="m 180,329 18,8 c 9.24,-17.53 14.78,-38.36 21.56,-57 2.31,-6.35 3.57,-17.15 9.57,-21.24 4.73,-3.22 14.51,-0.44 19.87,0.07 10.84,1.03 23.37,0.68 34,-1.72 C 335.22,245.34 372.71,199.28 374.96,146 378.07,72.236 305.3,13.58 234,29.02 c -43.93,9.507 -76.57,43.459 -88.57,85.985 -10.53,37.33 1.89,78.48 27.37,106.83 6.71,7.46 14.87,14.11 23.29,19.57 3.73,2.42 9.79,4.83 10.96,9.62 1.32,5.42 -4.33,13.76 -5.85,18.98 -5.82,19.96 -16.4,38.78 -21.2,59 z"
       style="display:inline;fill:#ffff01" />
    <path
       id="path658"
       d="m 237,270 c -8.48,15.92 -15.41,36.57 -20.08,54 -1.36,5.06 -6.23,11.67 -4.89,17 3.2,12.76 17.13,22.54 28.97,25.62 22.34,5.83 48.15,7.53 70,-1.07 3.88,-1.53 9.74,-2.89 11.97,-6.74 2.07,-3.57 0.82,-8.86 1.2,-12.81 0.99,-10.2 6.53,-18.52 16.83,-21 0.01,-9.11 1.67,-18.72 8.46,-25.47 3.91,-3.89 10.2,-6.15 14.14,-1.19 9.75,12.3 -3.7,27.68 12.4,36.66 13.76,-29.42 26.34,-75.12 -15,-88.74 -5.23,-1.73 -11.36,-4.63 -17,-4.08 -10.25,1.01 -22.68,14.27 -32.42,18.73 -22.23,10.18 -50.54,14.88 -74.58,9.09 z"
       style="display:inline;fill:#ce61a9;fill-opacity:1" />
    <path
       id="path702"
       d="m 137,338 c 3.18,-4.17 6.58,-7.19 11,-10 -1.97,-3.92 -6.68,-6.5 -7.46,-11 -1.64,-9.41 12.19,-20.93 20.46,-21.82 4.38,-0.48 12.3,5.08 15.49,2.99 2.51,-1.64 3.42,-6.55 4.51,-9.17 3.1,-7.51 12.87,-25.96 7.97,-33.72 -2.47285,-3.92245 -7.70872,-3.82217 -13.38023,-2.14588 -7.63086,2.25541 -16.05037,7.36385 -19.58977,9.36588 -13.64,7.73 -26.48,17.21 -39,26.63 -3.86,2.9 -12.34,8.01 -13.48,13 -1.24,5.43 2.89,10.17 6.2,13.83 7.67,8.5 17.17,16.64 27.28,22.04 z"
       style="display:inline;fill:#ce61a9;fill-opacity:1" />
    <path
       id="path1138"
       d="m 157,384 c 0,13.94 -0.51,25.95 5.22,39 4.77,10.86 10.96,21.1 18.95,30 6.92,7.7 14.83,8.96 24.83,9 17.21,0.08 33.73,-6.21 42.48,-22 11.07,-19.97 3.58,-55.02 -21.52,-61.31 -7.81,-1.95 -23.68,6.35 -31.96,8.1 -13.65,2.89 -24.79,-0.54 -38,-2.79 z"
       style="display:inline;fill:#9fc79f" />
    <path
       id="path1110"
       d="m 357,385 c -17.01,3.2 -27.07,2.97 -31,-16 -11.91,1.56 -23.62,7.8 -36,9.57 -4.1,0.59 -11.08,-0.98 -14.3,2.03 -5.1,4.77 -5.44,14.02 -5.74,20.4 -0.22,4.66 -2.39,9.33 -1.6,14 1.72,10.26 13.38,21.18 19.74,29 4.59,5.66 10.59,14.3 17.9,16.49 8.24,2.46 16.55,-4.65 23,-8.83 9.21,-5.99 19.98,-13.42 24.98,-23.66 2.33,-4.78 0.91,-11.82 1.04,-17 0.21,-8.7 1.98,-17.26 1.98,-26 z"
       style="display:inline;fill:#95bb95" />
    <path
       id="path982"
       d="m 344.04,338.74 c -8.51,3.44 -8.51,27.18 -1.48,32.23 3.87,2.78 17.29,-0.65 21.44,-2.32 23.49,-9.46 -4.63,-36.1 -19.96,-29.91 z"
       style="display:inline;fill:#fbb5a7" />
    <path
       id="path1006"
       d="m 201,365 c -6.76,-9.02 -21.93,-17.44 -33,-19.53 -4.52,-0.85 -12.18,-1.71 -14.24,3.59 -2.56,6.57 3.94,13.06 9.24,15.61 11.8,5.69 25.9,4.17 38,0.33 z"
       style="display:inline;fill:#fbb5a7" />
    <path
       id="path1198"
       d="m 365,406 c -0.86,6.78 1.35,18.22 -1.49,24.2 -7.25,15.25 -24.45,25.44 -38.51,33.66 -6.58,3.84 -13.19,7.73 -21,5.03 -16.77,-5.8 -20.94,-25.76 -35,-33.89 0,8.86 0.3,16.69 3.74,25 17.58,42.43 71.5,11.84 89.46,-14 7.43,-10.69 13.35,-29.47 2.8,-40"
       style="display:inline;fill:#576e57" />
    <path
       id="path1222"
       d="m 155,432 c 2.63,10.96 11.11,20.8 17.28,30.04 2.17,3.23 4.52,8.56 8.1,10.4 4.57,2.35 11.58,2.11 16.62,2.72 15.31,1.83 33.26,2.59 48,-2.5 5.63,-1.95 11.75,-4.02 14.68,-9.66 2.98,-5.74 -0.56,-14.03 -1.68,-20 -5.56,5.92 -9.39,12.43 -16,17.54 -14.23,10.98 -43.14,17.76 -59,6.03 -12.43,-9.19 -17.42,-24.31 -28,-34.57"
       style="display:inline;fill:#576e57" />
    <path
       id="path96"
       d="m 203,78.432 c -41.94,5.523 -52.25,62.648 -12,79.888 7.45,3.19 18.11,2.68 26,1.47 48.64,-7.5 34.78,-87.781 -14,-81.358 z"
       style="display:inline;fill:#010101" />
    <path
       id="path186"
       d="m 196,147 c -1.86,-8.13 -2.94,-15.07 3.38,-21.79 10.5,-11.16 28.74,-3.58 30.62,10.79 9.52,-9.43 5.95,-29.23 -3.17,-37.74 -12.58,-11.724 -31.99,-10.389 -42.89,2.76 -3.76,4.52 -5.37,9.22 -6.17,14.98 -0.77,5.56 0.25,11.88 2.58,17 3.12,6.83 8.9,11.17 15.65,14 z"
       style="display:inline;fill:#ffffff" />
    <path
       id="path88"
       d="m 299,75.518 c -52.42,11.12 -36.2,92.762 16,81.662 52.67,-11.2 36.32,-92.76 -16,-81.662 z"
       style="display:inline;fill:#010101" />
    <path
       id="path158"
       d="m 283,134 c 2.92303,-6.34588 4.80429,-9.36607 10.18,-11.66 15.75,-7.07 24.49,8.35 22.82,21.66 38.8,-11.2 14.11,-71.907 -22,-53.85 -4.34,2.168 -8.17,5.944 -10.96,9.85 -3.18,4.48 -5.24,9.49 -5.71,15 -0.59,6.86 2.59,13.13 5.67,19 z"
       style="display:inline;fill:#ffffff" />
  </g>
</svg>
