<?xml version="1.0" encoding="UTF-8" standalone="no"?>
<svg
   xmlns:dc="http://purl.org/dc/elements/1.1/"
   xmlns:cc="http://creativecommons.org/ns#"
   xmlns:rdf="http://www.w3.org/1999/02/22-rdf-syntax-ns#"
   xmlns:svg="http://www.w3.org/2000/svg"
   xmlns="http://www.w3.org/2000/svg"
   version="1.1"
   width="512"
   height="512"
   id="svg1">
  <defs
     id="defs1" />
  <metadata
     id="metadata1">
    <rdf:RDF>
      <cc:Work
         rdf:about="">
        <dc:format>image/svg+xml</dc:format>
        <dc:type
           rdf:resource="http://purl.org/dc/dcmitype/StillImage" />
        <dc:title></dc:title>
      </cc:Work>
    </rdf:RDF>
  </metadata>
  <g
     id="g859">
    <path
       style="fill:#010101"
       d="M 257.24805 6.4570312 C 206.25393 6.5944429 155.75727 36.492137 133.16992 82.783203 C 117.33738 113.72575 115.26757 151.24596 123.55859 184.65625 C 129.00745 205.07425 140.38108 222.47691 153 239 C 133.70372 249.1068 117.10182 263.78359 98.666016 275.46875 C 88.919984 283.78941 73.388901 288.09095 69.958984 301.45898 C 80.26604 324.38556 107.52371 335.3868 123.56445 354.53906 C 146.84967 369.31316 135.96074 391.85087 134.42969 413 C 133.77866 432.79563 142.45578 451.22521 153.875 466.81836 C 153.9626 480.73831 121.97026 501.84222 150.72656 507.94531 C 182.48224 507.54944 214.26758 509.07807 246 507.93945 C 265.25207 501.35865 287.005 510.40399 307.81445 505.50781 C 331.09551 504.28523 354.59299 505.18229 377.74219 502.93164 C 400.6645 487.47088 349.6684 472.03449 376.48047 456.06445 C 390.50486 438.79765 387.18786 414.04679 382 394 C 399.87423 379.06001 400.51204 357.57507 401.87109 336.57422 C 407.12315 316.71171 415.90676 297.87811 421.04883 278.07617 C 417.20041 254.03632 381.87276 236.76464 375.23828 220.92773 C 393.02541 191.62801 401.88747 156.65045 394.83789 122.63281 C 387.51595 67.544016 342.6777 21.759401 288.81836 10.337891 C 278.43688 7.6831363 267.83173 6.4285123 257.24805 6.4570312 z M 257.34766 26.535156 C 320.31149 26.591117 377.73078 80.303938 374.96094 146 C 372.71094 199.28 335.22 245.33938 283 257.10938 C 272.37 259.50938 259.84 259.86008 249 258.83008 C 243.64 258.32008 233.86086 255.53977 229.13086 258.75977 C 223.13086 262.84977 221.87055 273.65 219.56055 280 C 212.78055 298.64 207.24 319.47 198 337 L 180.00195 329 C 180.00148 329.002 180.00047 329.00386 180 329.00586 L 180 329 L 180.00195 329 C 184.80262 308.78227 195.37979 289.96389 201.19922 270.00586 C 202.71922 264.78586 208.37078 256.44539 207.05078 251.02539 C 205.88078 246.23539 199.81984 243.8243 196.08984 241.4043 C 187.66984 235.9443 179.51078 229.29594 172.80078 221.83594 C 147.32078 193.48594 134.89969 152.33586 145.42969 115.00586 C 157.42969 72.479851 190.07 38.526531 234 29.019531 C 241.79844 27.330781 249.61526 26.528284 257.34766 26.535156 z M 345.0625 242.11523 C 350.40233 241.98699 356.09687 244.63789 361 246.25977 C 402.34 259.87977 389.76 305.58 376 335 C 359.9 326.02 373.34961 310.63984 363.59961 298.33984 C 359.65961 293.37984 353.37094 295.6393 349.46094 299.5293 C 342.67094 306.2793 341.01 315.89 341 325 C 330.7 327.48 325.15992 335.8 324.16992 346 C 323.78992 349.95 325.0407 355.24055 322.9707 358.81055 C 320.7407 362.66055 314.88 364.02078 311 365.55078 C 289.15 374.15078 263.34 372.44914 241 366.61914 C 229.16 363.53914 215.2293 353.76 212.0293 341 C 210.6893 335.67 215.55992 329.06 216.91992 324 C 221.58992 306.57 228.52 285.92 237 270 C 261.04 275.79 289.35008 271.09016 311.58008 260.91016 C 321.32008 256.45016 333.75 243.18969 344 242.17969 C 344.3525 242.14531 344.70651 242.12378 345.0625 242.11523 z M 181.66406 252.04297 C 184.8 251.94909 187.42517 252.82777 188.9707 255.2793 C 193.8707 263.0393 184.1 281.49 181 289 C 179.91 291.62 179.00023 296.52992 176.49023 298.16992 C 173.30023 300.25992 165.38 294.69969 161 295.17969 C 152.73 296.06969 138.89906 307.59 140.53906 317 C 141.31906 321.5 146.03 324.08 148 328 C 143.58 330.81 140.18 333.83 137 338 C 126.89 332.6 117.3907 324.46094 109.7207 315.96094 C 106.4107 312.30094 102.27953 307.56086 103.51953 302.13086 C 104.65953 297.14086 113.14 292.03086 117 289.13086 C 129.52 279.71086 142.36 270.23 156 262.5 C 159.5394 260.49797 167.95898 255.39018 175.58984 253.13477 C 177.71666 252.50616 179.7825 252.0993 181.66406 252.04297 z M 348.63477 337.82422 C 364.18793 337.39473 385.28781 360.07727 364 368.65039 C 359.85 370.32039 346.43055 373.7507 342.56055 370.9707 C 335.53055 365.9207 335.52906 342.18023 344.03906 338.74023 C 345.47625 338.15992 347.02582 337.86865 348.63477 337.82422 z M 162.05078 344.83398 C 164.16801 344.83018 166.305 345.15195 168 345.4707 C 179.07 347.5607 194.24 355.98 201 365 C 188.9 368.84 174.8 370.35992 163 364.66992 C 157.7 362.11992 151.19977 355.63055 153.75977 349.06055 C 155.04727 345.74805 158.52207 344.84033 162.05078 344.83398 z M 326 369 C 329.93 387.97 339.99 388.2 357 385 C 357 393.74 355.22953 402.3 355.01953 411 C 354.88953 416.18 356.31047 423.22 353.98047 428 C 348.98047 438.24 338.21 445.67016 329 451.66016 C 322.55 455.84016 314.24 462.95023 306 460.49023 C 298.69 458.30023 292.68961 449.66 288.09961 444 C 281.73961 436.18 270.07938 425.26 268.35938 415 C 267.56937 410.33 269.74094 405.66 269.96094 401 C 270.26094 394.62 270.59922 385.36961 275.69922 380.59961 C 278.91922 377.58961 285.9 379.16031 290 378.57031 C 302.38 376.80031 314.09 370.56 326 369 z M 224.56445 378.39844 C 225.42543 378.41492 226.22875 378.50664 226.96094 378.68945 C 252.06094 384.97945 259.55047 420.03 248.48047 440 C 239.73047 455.79 223.21 462.08 206 462 C 196 461.96 188.08992 460.7 181.16992 453 C 173.17992 444.1 166.9907 433.86 162.2207 423 C 156.4907 409.95 157 397.94 157 384 C 170.21 386.25 181.35 389.67906 195 386.78906 C 202.50375 385.20312 216.24172 378.23914 224.56445 378.39844 z M 365 406 C 375.55 416.53 369.62922 435.31 362.19922 446 C 344.23922 471.84 290.32023 502.43 272.74023 460 C 269.30023 451.69 269 443.86 269 435 C 283.06 443.13 287.23 463.09062 304 468.89062 C 311.81 471.59062 318.42 467.69937 325 463.85938 C 339.06 455.63938 356.25977 445.44922 363.50977 430.19922 C 366.34977 424.21922 364.14 412.78 365 406 z M 155 432 C 165.58 442.26 170.57 457.38031 183 466.57031 C 198.86 478.30031 227.77 471.51906 242 460.53906 C 248.61 455.42906 252.44 448.92 258 443 C 259.12 448.97 262.65969 457.26 259.67969 463 C 256.74969 468.64 250.63 470.71016 245 472.66016 C 230.26 477.75016 212.31 476.99016 197 475.16016 C 191.96 474.55016 184.95086 474.78945 180.38086 472.43945 C 176.80086 470.59945 174.4493 465.26906 172.2793 462.03906 C 166.1093 452.79906 157.63 442.96 155 432 z "
       id="path1" />
    <path
       style="fill:#010101"
       d="M 207.4707 78.078125 C 206.01537 78.114367 204.52437 78.230922 203 78.431641 C 161.06 83.954641 150.75 141.08031 191 158.32031 C 198.45 161.51031 209.11 160.99906 217 159.78906 C 264.12 152.52344 252.58594 76.95462 207.4707 78.078125 z M 206.2168 90.253906 C 213.53517 90.138944 220.9332 92.764141 226.83008 98.259766 C 235.95008 106.76977 239.52 126.57 230 136 C 228.12 121.63 209.88086 114.05094 199.38086 125.21094 C 193.06086 131.93094 194.14 138.87 196 147 C 189.25 144.17 183.46961 139.83 180.34961 133 C 178.01961 127.88 176.99953 121.56 177.76953 116 C 178.56953 110.24 180.17945 105.53953 183.93945 101.01953 C 189.73008 94.034125 197.92265 90.384197 206.2168 90.253906 z "
       id="path11" />
    <path
       style="fill:#010101"
       d="M 308.38086 74.482422 C 305.39994 74.491956 302.27 74.823953 299 75.517578 C 246.58 86.637578 262.8 168.27969 315 157.17969 C 364.37813 146.67969 353.09459 74.339417 308.38086 74.482422 z M 306.9043 86.820312 C 335.29053 86.496357 349.95 134.2 316 144 C 317.67 130.69 308.92969 115.26984 293.17969 122.33984 C 287.80398 124.63377 285.92303 127.65412 283 134 C 279.92 128.13 276.74008 121.86 277.33008 115 C 277.80008 109.49 279.85906 104.48 283.03906 100 C 285.82906 96.094 289.66 92.318391 294 90.150391 C 298.51375 87.893266 302.84912 86.866592 306.9043 86.820312 z "
       id="path13" />
  </g>
</svg>
