<?xml version="1.0" encoding="UTF-8" standalone="no"?>
<svg
   xmlns:dc="http://purl.org/dc/elements/1.1/"
   xmlns:cc="http://creativecommons.org/ns#"
   xmlns:rdf="http://www.w3.org/1999/02/22-rdf-syntax-ns#"
   xmlns:svg="http://www.w3.org/2000/svg"
   xmlns="http://www.w3.org/2000/svg"
   id="svg4773"
   version="1.1"
   viewBox="0 0 69.320835 69.320834"
   height="262"
   width="262">
  <defs
     id="defs4767" />
  <metadata
     id="metadata4770">
    <rdf:RDF>
      <cc:Work
         rdf:about="">
        <dc:format>image/svg+xml</dc:format>
        <dc:type
           rdf:resource="http://purl.org/dc/dcmitype/StillImage" />
        <dc:title></dc:title>
      </cc:Work>
    </rdf:RDF>
  </metadata>
  <g
     id="g4059"
     style="display:none">
    <path
       style="fill:none;stroke:#000000;stroke-width:0.26445186px;stroke-linecap:butt;stroke-linejoin:miter;stroke-opacity:1"
       d="m 19.103466,69.188609 50.141955,0 -0.05681,-49.272563 0.155024,-0.510764 L 68.633283,18.694929 67.212578,17.274225 64.37117,14.432815 61.529759,11.591406 58.68835,8.7499962 44.705541,9.4054581 43.022537,14.989031 35.848857,7.8153503 24.661385,9.5084437 22.616449,12.950877 22.168094,12.502522 21.271384,11.605812 19.477964,9.8123915 15.891123,6.225551 14.885614,6.8771381 10.759323,32.823145 l -0.469446,0.608764 1.188305,1.188305 1.188306,1.188306 1.188305,1.188305 1.188306,1.188305 1.188305,1.188306 1.188306,1.188305 1.188305,1.188306 -0.506245,0.494363 -4.709524,4.468516 -2.198492,2.33616 4.753223,4.753221 -0.45488,0.448485 -4.122656,7.14729 -0.181063,0.832803 2.376611,2.376612 2.376612,2.376609 1.188306,1.188306 0.594152,0.594153 0.297077,0.297076 0.148538,0.148539 z"
       id="path4061" />
  </g>
  <g
     id="g3954"
     style="display:none">
    <path
       style="fill:none;stroke:#000000;stroke-width:0.26458335px;stroke-linecap:butt;stroke-linejoin:miter;stroke-opacity:1"
       d="M 10.289877,33.431909 48.315651,71.457681"
       id="path3956" />
    <path
       style="fill:none;stroke:#000000;stroke-width:0.26458335px;stroke-linecap:butt;stroke-linejoin:miter;stroke-opacity:1"
       d="M 15.891123,6.2255511 44.585848,34.920276 73.280572,63.615001"
       id="path3958" />
    <path
       style="fill:none;stroke:#000000;stroke-width:0.26458335px;stroke-linecap:butt;stroke-linejoin:miter;stroke-opacity:1"
       d="M 58.688349,8.7499957 81.419622,31.481272"
       id="path3960" />
    <path
       style="fill:none;stroke:#000000;stroke-width:0.26458335px;stroke-linecap:butt;stroke-linejoin:miter;stroke-opacity:1"
       d="M 35.848856,7.8153503 93.238305,65.204798"
       id="path3962" />
    <path
       style="fill:none;stroke:#000000;stroke-width:0.26458335px;stroke-linecap:butt;stroke-linejoin:miter;stroke-opacity:1"
       d="M 11.193754,49.049085 49.219537,87.074857"
       id="path3964" />
    <path
       style="fill:none;stroke:#000000;stroke-width:0.26458335px;stroke-linecap:butt;stroke-linejoin:miter;stroke-opacity:1"
       d="M 11.188378,62.230884 49.21416,100.25666"
       id="path3966" />
    <path
       style="fill:none;stroke:#000000;stroke-width:1px;stroke-linecap:butt;stroke-linejoin:miter;stroke-opacity:1"
       d="m 168.96582,67.783322 0,-32.235133 53.99385,-1.074505"
       id="path3968"
       transform="matrix(0.26458334,0,0,0.26458334,0,-5e-7)" />
    <path
       style="fill:none;stroke:#000000;stroke-width:1px;stroke-linecap:butt;stroke-linejoin:miter;stroke-opacity:1"
       d="M 39.488038,126.88107 59.634997,24.265892"
       id="path3970"
       transform="matrix(0.26458334,0,0,0.26458334,0,-5e-7)" />
    <path
       style="fill:none;stroke:#000000;stroke-width:1px;stroke-linecap:butt;stroke-linejoin:miter;stroke-opacity:1"
       d="m 74.409433,150.25154 -32.50376,34.38414"
       id="path3972"
       transform="matrix(0.26458334,0,0,0.26458334,0,-5e-7)" />
    <path
       style="fill:none;stroke:#000000;stroke-width:1px;stroke-linecap:butt;stroke-linejoin:miter;stroke-opacity:1"
       d="M 62.321258,196.45523 41.637047,234.33151"
       id="path3974"
       transform="matrix(0.26458334,0,0,0.26458334,0,-5e-7)" />
    <path
       style="fill:none;stroke:#000000;stroke-width:0.26445186px;stroke-linecap:butt;stroke-linejoin:miter;stroke-opacity:1"
       d="m 16.007226,69.188609 53.181383,0 0,-50.746963"
       id="path3976" />
    <path
       style="fill:none;stroke:#000000;stroke-width:1px;stroke-linecap:butt;stroke-linejoin:miter;stroke-opacity:1"
       d="M 85.265643,48.632231 93.208383,35.937426 136.8595,31.049587"
       id="path3978"
       transform="matrix(0.26458334,0,0,0.26458334,0,-5e-7)" />
  </g>
  <g
     id="layer3">
    <rect
       y="1.1352538e-007"
       x="0"
       height="69.320831"
       width="69.320831"
       id="rect3008"
       style="fill:#ce61a9;fill-opacity:1" />
  </g>
  <g
     style="display:inline"
     id="layer4">
    <path
       id="path4057"
       d="M 69.320835,69.320835 V 19.200548 L 58.830666,8.7103555 44.705541,9.4054581 43.180795,14.962717 36.007232,7.7889544 24.661385,9.5084437 22.709063,12.847708 15.984375,6.122083 l -5.809111,27.402256 8.318799,8.321182 -7.399617,7.312804 4.753302,4.753176 -4.759462,8.410829 6.998902,6.998505 z"
       style="fill:#8d4c96;fill-opacity:1;stroke:none" />
  </g>
  <g
     style="display:inline"
     transform="translate(-139.18261,-126.26301)"
     id="layer1">
    <g
       transform="translate(9.4324342,-5.403313)"
       id="g5527">
      <path
         d="m 139.92451,137.78573 h 5.81132 v 27.40764 h -5.81132 z"
         style="fill:#ffffff;fill-opacity:1;fill-rule:nonzero;stroke:none"
         id="path4566" />
      <path
         d="M 168.64209,165.1938 H 149.2606 v -4.07739 l 6.95976,-7.03559 c 2.06078,-2.11117 3.40694,-3.57491 4.03947,-4.39029 0.63206,-0.81586 1.08702,-1.57077 1.36537,-2.26618 0.27787,-0.6954 0.41705,-1.41575 0.41705,-2.16203 0,-1.11245 -0.30618,-1.94078 -0.91952,-2.48453 -0.61333,-0.54328 -1.4316,-0.81538 -2.45575,-0.81538 -1.07501,0 -2.11788,0.24668 -3.12906,0.73955 -1.01215,0.49336 -2.06749,1.195 -3.16745,2.10491 l -3.1857,-3.77359 c 1.36536,-1.16332 2.49653,-1.98494 3.39446,-2.46534 0.89744,-0.4804 1.87743,-0.85041 2.9395,-1.10957 1.06206,-0.25915 2.25032,-0.38873 3.56531,-0.38873 1.73202,0 3.262,0.31627 4.58945,0.94832 1.32745,0.63253 2.35784,1.51702 3.09115,2.65491 0.73284,1.13788 1.09998,2.44038 1.09998,3.90653 0,1.27754 -0.2246,2.47493 -0.67333,3.59411 -0.44873,1.11868 -1.14412,2.26617 -2.0862,3.44197 -0.94159,1.1758 -2.60116,2.85118 -4.97819,5.02522 l -3.56531,3.35703 v 0.26539 h 12.0805 z"
         style="fill:#ffffff;fill-opacity:1;fill-rule:nonzero;stroke:none"
         id="path4570" />
      <path
         d="m 177.57404,150.68377 h 1.91198 c 1.78722,0 3.12428,-0.35274 4.01213,-1.05918 0.88688,-0.70597 1.33081,-1.73395 1.33081,-3.08396 0,-1.362 -0.37194,-2.36792 -1.11534,-3.0182 -0.74386,-0.64933 -1.90959,-0.97471 -3.49619,-0.97471 h -2.64339 z m 13.12287,-4.34951 c 0,2.95006 -0.92191,5.20567 -2.76528,6.76782 -1.84386,1.5626 -4.46517,2.34343 -7.86442,2.34343 h -2.49317 v 9.74809 h -5.81134 v -27.40763 h 8.75467 c 3.32439,0 5.85164,0.71556 7.58318,2.14667 1.73059,1.43111 2.59636,3.56482 2.59636,6.40162"
         style="fill:#ffffff;fill-opacity:1;fill-rule:nonzero;stroke:none"
         id="path4574" />
      <path
         d="m 150.26631,190.04175 c 0,-3.06091 -2.48117,-5.54209 -5.5421,-5.54209 -3.06043,0 -5.5416,2.48118 -5.5416,5.54209 0,3.06092 2.48117,5.54209 5.5416,5.54209 3.06093,0 5.5421,-2.48117 5.5421,-5.54209"
         style="fill:#ffc434;fill-opacity:1;fill-rule:nonzero;stroke:none"
         id="path4578" />
      <path
         d="m 150.26631,176.86733 c 0,-3.06092 -2.48117,-5.5421 -5.5421,-5.5421 -3.06043,0 -5.5416,2.48118 -5.5416,5.5421 0,3.06092 2.48117,5.54209 5.5416,5.54209 3.06093,0 5.5421,-2.48117 5.5421,-5.54209"
         style="fill:#60ab60;fill-opacity:1;fill-rule:nonzero;stroke:none"
         id="path4582" />
      <path
         d="m 163.44073,190.04175 c 0,-3.06091 -2.48118,-5.54209 -5.54208,-5.54209 -3.06045,0 -5.54163,2.48118 -5.54163,5.54209 0,3.06092 2.48118,5.54209 5.54163,5.54209 3.0609,0 5.54208,-2.48117 5.54208,-5.54209"
         style="fill:#e15647;fill-opacity:1;fill-rule:nonzero;stroke:none"
         id="path4586" />
      <path
         d="m 163.44073,176.86733 c 0,-3.06092 -2.48118,-5.5421 -5.54208,-5.5421 -3.06045,0 -5.54163,2.48118 -5.54163,5.5421 0,3.06092 2.48118,5.54209 5.54163,5.54209 3.0609,0 5.54208,-2.48117 5.54208,-5.54209"
         style="fill:#ffc434;fill-opacity:1;fill-rule:nonzero;stroke:none"
         id="path4590" />
      <path
         d="m 176.61516,190.04175 c 0,-3.06091 -2.48119,-5.54209 -5.5421,-5.54209 -3.06044,0 -5.54162,2.48118 -5.54162,5.54209 0,3.06092 2.48118,5.54209 5.54162,5.54209 3.06091,0 5.5421,-2.48117 5.5421,-5.54209"
         style="fill:#ffc434;fill-opacity:1;fill-rule:nonzero;stroke:none"
         id="path4594" />
      <path
         d="m 176.61516,176.86733 c 0,-3.06092 -2.48119,-5.5421 -5.5421,-5.5421 -3.06044,0 -5.54162,2.48118 -5.54162,5.5421 0,3.06092 2.48118,5.54209 5.54162,5.54209 3.06091,0 5.5421,-2.48117 5.5421,-5.54209"
         style="fill:#60ab60;fill-opacity:1;fill-rule:nonzero;stroke:none"
         id="path4598" />
      <path
         d="m 189.78952,190.04175 c 0,-3.06091 -2.48117,-5.54209 -5.54208,-5.54209 -3.06044,0 -5.54162,2.48118 -5.54162,5.54209 0,3.06092 2.48118,5.54209 5.54162,5.54209 3.06091,0 5.54208,-2.48117 5.54208,-5.54209"
         style="fill:#60ab60;fill-opacity:1;fill-rule:nonzero;stroke:none"
         id="path4602" />
      <path
         d="m 189.78952,176.86733 c 0,-3.06092 -2.48117,-5.5421 -5.54208,-5.5421 -3.06044,0 -5.54162,2.48118 -5.54162,5.5421 0,3.06092 2.48118,5.54209 5.54162,5.54209 3.06091,0 5.54208,-2.48117 5.54208,-5.54209"
         style="fill:#e15647;fill-opacity:1;fill-rule:nonzero;stroke:none"
         id="path4606" />
    </g>
    <path
       d="m 198.46969,155.55184 c -0.21899,-0.0817 -0.47531,-0.10669 -0.74608,-0.0996 -0.51024,0.0134 -0.69223,0.11821 -0.94579,0.35496 -0.25329,0.23657 -0.38007,0.58105 -0.38007,1.03347 0,0.45642 0.10622,0.79351 0.31853,1.01143 0.21244,0.2176 0.54538,0.33091 0.99848,0.32664 0.42484,-0.004 0.48988,0.005 0.75493,-0.0999 z m -3.74778,1.35802 c 0,-0.9886 0.26329,-1.74448 0.78974,-2.26798 0.52659,-0.52364 1.27568,-0.81565 2.24601,-0.78531 0.34978,0.0109 0.43338,0.0338 0.71203,0.10027 v -3.36698 h 1.65968 v 9.18464 h -1.66356 v -0.18604 c -0.27063,0.11576 -0.41692,0.18749 -0.83671,0.18604 -0.76289,-0.003 -1.52502,-0.0761 -2.16569,-0.71937 -0.49424,-0.47959 -0.7415,-1.19462 -0.7415,-2.14527"
       style="display:inline;fill:#ffffff;fill-opacity:1;fill-rule:nonzero;stroke:none;stroke-width:0.30936289"
       id="path4574-7" />
  </g>
</svg>
